<svg xmlns="http://www.w3.org/2000/svg" xmlns:xlink="http://www.w3.org/1999/xlink" width="500" zoomAndPan="magnify" viewBox="0 0 375 374.999991" height="500" preserveAspectRatio="xMidYMid meet" version="1.0"><defs><clipPath id="a9d7a7db3d"><path d="M 37.5 49 L 218 49 L 218 327 L 37.5 327 Z M 37.5 49 " clip-rule="nonzero"/></clipPath><clipPath id="36cd36de26"><path d="M 37.5 49 L 218 49 L 218 258 L 37.5 258 Z M 37.5 49 " clip-rule="nonzero"/></clipPath><clipPath id="b81e812efe"><path d="M 282 48.136719 L 337.5 48.136719 L 337.5 104 L 282 104 Z M 282 48.136719 " clip-rule="nonzero"/></clipPath><clipPath id="e639a35c86"><path d="M 152 52 L 337.5 52 L 337.5 325 L 152 325 Z M 152 52 " clip-rule="nonzero"/></clipPath><clipPath id="5ab2bf816b"><path d="M 152 52 L 337.5 52 L 337.5 257 L 152 257 Z M 152 52 " clip-rule="nonzero"/></clipPath></defs><g clip-path="url(#a9d7a7db3d)"><path fill="#72ffff" d="M 108.855469 62.097656 L 205.285156 158.523438 C 206.253906 159.492188 207.171875 160.507812 208.039062 161.5625 C 208.910156 162.621094 209.722656 163.722656 210.484375 164.859375 C 211.246094 165.996094 211.949219 167.171875 212.59375 168.378906 C 213.238281 169.585938 213.824219 170.820312 214.347656 172.085938 C 214.871094 173.351562 215.332031 174.640625 215.730469 175.949219 C 216.125 177.261719 216.460938 178.585938 216.726562 179.929688 C 216.992188 181.273438 217.195312 182.625 217.328125 183.988281 C 217.460938 185.351562 217.53125 186.714844 217.53125 188.085938 C 217.53125 189.453125 217.460938 190.820312 217.328125 192.183594 C 217.195312 193.546875 216.992188 194.898438 216.726562 196.242188 C 216.460938 197.582031 216.125 198.910156 215.730469 200.21875 C 215.332031 201.53125 214.871094 202.816406 214.347656 204.082031 C 213.824219 205.347656 213.238281 206.585938 212.59375 207.792969 C 211.949219 209 211.246094 210.171875 210.484375 211.3125 C 209.722656 212.449219 208.910156 213.546875 208.039062 214.605469 C 207.171875 215.664062 206.253906 216.675781 205.285156 217.644531 L 108.855469 314.074219 C 82.519531 340.410156 37.480469 321.746094 37.5 284.480469 L 37.5 91.625 C 37.480469 54.425781 82.519531 35.761719 108.855469 62.097656 Z M 108.855469 62.097656 " fill-opacity="1" fill-rule="nonzero"/></g><g clip-path="url(#36cd36de26)"><path fill="#00d7ff" d="M 108.855469 62.097656 C 82.671875 35.910156 38.144531 54.210938 37.519531 91.003906 C 37.519531 91.003906 189.257812 234.574219 165.128906 257.972656 L 205.371094 217.730469 C 206.339844 216.761719 207.257812 215.75 208.125 214.691406 C 208.996094 213.632812 209.808594 212.535156 210.570312 211.394531 C 211.332031 210.257812 212.035156 209.085938 212.679688 207.878906 C 213.324219 206.667969 213.910156 205.433594 214.433594 204.167969 C 214.957031 202.902344 215.417969 201.617188 215.816406 200.304688 C 216.210938 198.996094 216.542969 197.667969 216.8125 196.328125 C 217.078125 194.984375 217.28125 193.628906 217.414062 192.269531 C 217.546875 190.90625 217.613281 189.539062 217.613281 188.171875 C 217.613281 186.800781 217.546875 185.433594 217.414062 184.074219 C 217.28125 182.710938 217.078125 181.359375 216.8125 180.015625 C 216.542969 178.671875 216.210938 177.34375 215.816406 176.035156 C 215.417969 174.726562 214.957031 173.4375 214.433594 172.171875 C 213.910156 170.90625 213.324219 169.671875 212.679688 168.464844 C 212.035156 167.257812 211.332031 166.082031 210.570312 164.945312 C 209.808594 163.804688 208.996094 162.707031 208.125 161.648438 C 207.257812 160.589844 206.339844 159.578125 205.371094 158.609375 Z M 108.855469 62.097656 " fill-opacity="1" fill-rule="nonzero"/></g><g clip-path="url(#b81e812efe)"><path fill="#590696" d="M 337.5 75.765625 C 337.5 76.660156 337.457031 77.554688 337.367188 78.445312 C 337.28125 79.335938 337.148438 80.21875 336.976562 81.097656 C 336.800781 81.976562 336.582031 82.84375 336.324219 83.699219 C 336.0625 84.554688 335.761719 85.394531 335.421875 86.222656 C 335.078125 87.050781 334.695312 87.855469 334.273438 88.644531 C 333.851562 89.433594 333.394531 90.203125 332.894531 90.945312 C 332.398438 91.691406 331.867188 92.40625 331.296875 93.101562 C 330.730469 93.792969 330.128906 94.453125 329.496094 95.085938 C 328.863281 95.71875 328.203125 96.320312 327.511719 96.886719 C 326.820312 97.453125 326.101562 97.988281 325.359375 98.484375 C 324.613281 98.980469 323.847656 99.441406 323.058594 99.863281 C 322.269531 100.285156 321.460938 100.667969 320.632812 101.007812 C 319.808594 101.351562 318.964844 101.652344 318.109375 101.914062 C 317.253906 102.171875 316.386719 102.390625 315.507812 102.5625 C 314.632812 102.738281 313.746094 102.871094 312.855469 102.957031 C 311.964844 103.042969 311.074219 103.089844 310.179688 103.089844 C 309.285156 103.089844 308.390625 103.042969 307.5 102.957031 C 306.609375 102.871094 305.726562 102.738281 304.847656 102.5625 C 303.972656 102.390625 303.105469 102.171875 302.246094 101.914062 C 301.390625 101.652344 300.550781 101.351562 299.722656 101.007812 C 298.894531 100.667969 298.089844 100.285156 297.300781 99.863281 C 296.511719 99.441406 295.742188 98.980469 295 98.484375 C 294.253906 97.988281 293.539062 97.453125 292.847656 96.886719 C 292.15625 96.320312 291.492188 95.71875 290.859375 95.085938 C 290.226562 94.453125 289.625 93.792969 289.058594 93.101562 C 288.492188 92.40625 287.957031 91.691406 287.460938 90.945312 C 286.964844 90.203125 286.503906 89.433594 286.082031 88.644531 C 285.660156 87.855469 285.277344 87.050781 284.9375 86.222656 C 284.59375 85.394531 284.292969 84.554688 284.035156 83.699219 C 283.773438 82.84375 283.558594 81.976562 283.382812 81.097656 C 283.207031 80.21875 283.078125 79.335938 282.988281 78.445312 C 282.902344 77.554688 282.855469 76.660156 282.855469 75.765625 C 282.855469 74.871094 282.902344 73.980469 282.988281 73.089844 C 283.078125 72.199219 283.207031 71.316406 283.382812 70.4375 C 283.558594 69.558594 283.773438 68.691406 284.035156 67.835938 C 284.292969 66.980469 284.59375 66.136719 284.9375 65.3125 C 285.277344 64.484375 285.660156 63.675781 286.082031 62.886719 C 286.503906 62.097656 286.964844 61.332031 287.460938 60.589844 C 287.957031 59.84375 288.492188 59.125 289.058594 58.433594 C 289.625 57.742188 290.226562 57.082031 290.859375 56.449219 C 291.492188 55.816406 292.15625 55.214844 292.847656 54.648438 C 293.539062 54.078125 294.253906 53.546875 295 53.050781 C 295.742188 52.554688 296.511719 52.09375 297.300781 51.671875 C 298.089844 51.25 298.894531 50.867188 299.722656 50.527344 C 300.550781 50.183594 301.390625 49.882812 302.246094 49.621094 C 303.105469 49.363281 303.972656 49.144531 304.847656 48.972656 C 305.726562 48.796875 306.609375 48.664062 307.5 48.578125 C 308.390625 48.488281 309.285156 48.445312 310.179688 48.445312 C 311.074219 48.445312 311.964844 48.488281 312.855469 48.578125 C 313.746094 48.664062 314.632812 48.796875 315.507812 48.972656 C 316.386719 49.144531 317.253906 49.363281 318.109375 49.621094 C 318.964844 49.882812 319.808594 50.183594 320.632812 50.527344 C 321.460938 50.867188 322.269531 51.25 323.058594 51.671875 C 323.847656 52.09375 324.613281 52.554688 325.359375 53.050781 C 326.101562 53.546875 326.820312 54.078125 327.511719 54.648438 C 328.203125 55.214844 328.863281 55.816406 329.496094 56.449219 C 330.128906 57.082031 330.730469 57.742188 331.296875 58.433594 C 331.867188 59.125 332.398438 59.84375 332.894531 60.589844 C 333.394531 61.332031 333.851562 62.097656 334.273438 62.886719 C 334.695312 63.675781 335.078125 64.484375 335.421875 65.3125 C 335.761719 66.136719 336.0625 66.980469 336.324219 67.835938 C 336.582031 68.691406 336.800781 69.558594 336.976562 70.4375 C 337.148438 71.316406 337.28125 72.199219 337.367188 73.089844 C 337.457031 73.980469 337.5 74.871094 337.5 75.765625 Z M 337.5 75.765625 " fill-opacity="1" fill-rule="nonzero"/><path fill="#590696" d="M 337.5 75.765625 C 337.5 76.660156 337.457031 77.554688 337.367188 78.445312 C 337.28125 79.335938 337.148438 80.21875 336.976562 81.097656 C 336.800781 81.976562 336.582031 82.84375 336.324219 83.699219 C 336.0625 84.554688 335.761719 85.394531 335.421875 86.222656 C 335.078125 87.050781 334.695312 87.855469 334.273438 88.644531 C 333.851562 89.433594 333.394531 90.203125 332.894531 90.945312 C 332.398438 91.691406 331.867188 92.40625 331.296875 93.101562 C 330.730469 93.792969 330.128906 94.453125 329.496094 95.085938 C 328.863281 95.71875 328.203125 96.320312 327.511719 96.886719 C 326.820312 97.453125 326.101562 97.988281 325.359375 98.484375 C 324.613281 98.980469 323.847656 99.441406 323.058594 99.863281 C 322.269531 100.285156 321.460938 100.667969 320.632812 101.007812 C 319.808594 101.351562 318.964844 101.652344 318.109375 101.914062 C 317.253906 102.171875 316.386719 102.390625 315.507812 102.5625 C 314.632812 102.738281 313.746094 102.871094 312.855469 102.957031 C 311.964844 103.042969 311.074219 103.089844 310.179688 103.089844 C 309.285156 103.089844 308.390625 103.042969 307.5 102.957031 C 306.609375 102.871094 305.726562 102.738281 304.847656 102.5625 C 303.972656 102.390625 303.105469 102.171875 302.246094 101.914062 C 301.390625 101.652344 300.550781 101.351562 299.722656 101.007812 C 298.894531 100.667969 298.089844 100.285156 297.300781 99.863281 C 296.511719 99.441406 295.742188 98.980469 295 98.484375 C 294.253906 97.988281 293.539062 97.453125 292.847656 96.886719 C 292.15625 96.320312 291.492188 95.71875 290.859375 95.085938 C 290.226562 94.453125 289.625 93.792969 289.058594 93.101562 C 288.492188 92.40625 287.957031 91.691406 287.460938 90.945312 C 286.964844 90.203125 286.503906 89.433594 286.082031 88.644531 C 285.660156 87.855469 285.277344 87.050781 284.9375 86.222656 C 284.59375 85.394531 284.292969 84.554688 284.035156 83.699219 C 283.773438 82.84375 283.558594 81.976562 283.382812 81.097656 C 283.207031 80.21875 283.078125 79.335938 282.988281 78.445312 C 282.902344 77.554688 282.855469 76.660156 282.855469 75.765625 C 282.855469 74.871094 282.902344 73.980469 282.988281 73.089844 C 283.078125 72.199219 283.207031 71.316406 283.382812 70.4375 C 283.558594 69.558594 283.773438 68.691406 284.035156 67.835938 C 284.292969 66.980469 284.59375 66.136719 284.9375 65.3125 C 285.277344 64.484375 285.660156 63.675781 286.082031 62.886719 C 286.503906 62.097656 286.964844 61.332031 287.460938 60.589844 C 287.957031 59.84375 288.492188 59.125 289.058594 58.433594 C 289.625 57.742188 290.226562 57.082031 290.859375 56.449219 C 291.492188 55.816406 292.15625 55.214844 292.847656 54.648438 C 293.539062 54.078125 294.253906 53.546875 295 53.050781 C 295.742188 52.554688 296.511719 52.09375 297.300781 51.671875 C 298.089844 51.25 298.894531 50.867188 299.722656 50.527344 C 300.550781 50.183594 301.390625 49.882812 302.246094 49.621094 C 303.105469 49.363281 303.972656 49.144531 304.847656 48.972656 C 305.726562 48.796875 306.609375 48.664062 307.5 48.578125 C 308.390625 48.488281 309.285156 48.445312 310.179688 48.445312 C 311.074219 48.445312 311.964844 48.488281 312.855469 48.578125 C 313.746094 48.664062 314.632812 48.796875 315.507812 48.972656 C 316.386719 49.144531 317.253906 49.363281 318.109375 49.621094 C 318.964844 49.882812 319.808594 50.183594 320.632812 50.527344 C 321.460938 50.867188 322.269531 51.25 323.058594 51.671875 C 323.847656 52.09375 324.613281 52.554688 325.359375 53.050781 C 326.101562 53.546875 326.820312 54.078125 327.511719 54.648438 C 328.203125 55.214844 328.863281 55.816406 329.496094 56.449219 C 330.128906 57.082031 330.730469 57.742188 331.296875 58.433594 C 331.867188 59.125 332.398438 59.84375 332.894531 60.589844 C 333.394531 61.332031 333.851562 62.097656 334.273438 62.886719 C 334.695312 63.675781 335.078125 64.484375 335.421875 65.3125 C 335.761719 66.136719 336.0625 66.980469 336.324219 67.835938 C 336.582031 68.691406 336.800781 69.558594 336.976562 70.4375 C 337.148438 71.316406 337.28125 72.199219 337.367188 73.089844 C 337.457031 73.980469 337.5 74.871094 337.5 75.765625 Z M 337.5 75.765625 " fill-opacity="1" fill-rule="nonzero"/></g><g clip-path="url(#e639a35c86)"><path fill="#0096ff" d="M 325.242188 158.761719 L 228.8125 62.332031 C 202.929688 36.425781 133.929688 66.46875 157.542969 90.082031 L 226.886719 159.445312 C 227.855469 160.414062 228.773438 161.425781 229.640625 162.484375 C 230.511719 163.539062 231.324219 164.640625 232.085938 165.777344 C 232.847656 166.914062 233.550781 168.085938 234.199219 169.292969 C 234.84375 170.5 235.429688 171.738281 235.953125 173 C 236.476562 174.265625 236.9375 175.554688 237.335938 176.863281 C 237.734375 178.171875 238.066406 179.5 238.332031 180.839844 C 238.601562 182.183594 238.800781 183.535156 238.933594 184.898438 C 239.070312 186.261719 239.136719 187.625 239.136719 188.996094 C 239.136719 190.363281 239.070312 191.730469 238.933594 193.09375 C 238.800781 194.453125 238.601562 195.808594 238.332031 197.148438 C 238.066406 198.492188 237.734375 199.820312 237.335938 201.128906 C 236.9375 202.4375 236.476562 203.726562 235.953125 204.988281 C 235.429688 206.253906 234.84375 207.492188 234.199219 208.699219 C 233.550781 209.90625 232.847656 211.078125 232.085938 212.214844 C 231.324219 213.351562 230.511719 214.449219 229.640625 215.507812 C 228.773438 216.566406 227.855469 217.578125 226.886719 218.546875 L 157.585938 287.867188 C 136.457031 308.972656 203.1875 340.109375 228.8125 314.480469 L 325.242188 218.054688 C 326.21875 217.082031 327.140625 216.070312 328.015625 215.007812 C 328.890625 213.949219 329.710938 212.847656 330.476562 211.707031 C 331.242188 210.566406 331.949219 209.390625 332.601562 208.179688 C 333.25 206.96875 333.839844 205.730469 334.367188 204.460938 C 334.894531 203.191406 335.359375 201.898438 335.757812 200.585938 C 336.160156 199.269531 336.496094 197.941406 336.761719 196.59375 C 337.03125 195.246094 337.234375 193.886719 337.371094 192.519531 C 337.503906 191.152344 337.574219 189.78125 337.574219 188.40625 C 337.574219 187.03125 337.503906 185.660156 337.371094 184.292969 C 337.234375 182.925781 337.03125 181.570312 336.761719 180.222656 C 336.496094 178.875 336.160156 177.542969 335.757812 176.226562 C 335.359375 174.914062 334.894531 173.621094 334.367188 172.351562 C 333.839844 171.082031 333.25 169.84375 332.601562 168.632812 C 331.949219 167.421875 331.242188 166.246094 330.476562 165.105469 C 329.710938 163.964844 328.890625 162.863281 328.015625 161.804688 C 327.140625 160.742188 326.21875 159.730469 325.242188 158.761719 Z M 325.242188 158.761719 " fill-opacity="1" fill-rule="nonzero"/></g><g clip-path="url(#5ab2bf816b)"><path fill="#5800ff" d="M 325.242188 158.761719 L 228.8125 62.332031 C 202.929688 36.425781 133.929688 66.46875 157.542969 90.082031 L 226.886719 159.445312 C 228.546875 161.105469 230.058594 162.890625 231.417969 164.808594 C 232.777344 166.722656 233.964844 168.738281 234.984375 170.855469 C 236 172.972656 236.835938 175.15625 237.484375 177.414062 C 238.128906 179.671875 238.582031 181.96875 238.84375 184.304688 C 262.734375 212.351562 282.601562 239.589844 286.734375 256.558594 L 325.308594 217.988281 C 326.277344 217.019531 327.199219 216.003906 328.070312 214.945312 C 328.941406 213.882812 329.757812 212.78125 330.519531 211.640625 C 331.285156 210.5 331.988281 209.324219 332.636719 208.113281 C 333.28125 206.90625 333.867188 205.664062 334.394531 204.398438 C 334.917969 203.128906 335.378906 201.839844 335.777344 200.527344 C 336.175781 199.210938 336.507812 197.882812 336.773438 196.535156 C 337.042969 195.191406 337.242188 193.835938 337.375 192.46875 C 337.507812 191.101562 337.574219 189.734375 337.574219 188.359375 C 337.570312 186.988281 337.5 185.621094 337.367188 184.253906 C 337.230469 182.886719 337.027344 181.53125 336.757812 180.1875 C 336.488281 178.84375 336.152344 177.511719 335.75 176.199219 C 335.351562 174.886719 334.886719 173.597656 334.359375 172.332031 C 333.832031 171.0625 333.242188 169.828125 332.59375 168.617188 C 331.941406 167.410156 331.234375 166.234375 330.46875 165.097656 C 329.707031 163.957031 328.886719 162.859375 328.011719 161.800781 C 327.140625 160.742188 326.214844 159.726562 325.242188 158.761719 Z M 325.242188 158.761719 " fill-opacity="1" fill-rule="nonzero"/></g></svg>